# xmcd
#
# Track frame offsets:
#	150
#	14221
#	29357
#	48837
#	69037
#	84714
#	100780
#	114836
#	132350
#	147909
#	163046
#	177439
#	197858
#	211054
#	228114
#	240669
#	258033
#	274320
#	290184
#	306653
#
# Disc length: 4269 seconds
# Revision: 0
# Processed by: cddbd v1.5.2PL0 Copyright (c) Steve Scherf et al.
# Submitted via: dBpowerAMP V12.0
#
DISCID=2210ab14
DTITLE=Various Artist - Country Radio February 2011
DYEAR=2011
DGENRE=Country
TTITLE0=Alan Jackson - Ring Of Fire
TTITLE1=Leann Rimes - Crazy Women
TTITLE2=Brad Paisley1 - This Is Country Music
TTITLE3=Sugarland - Little Miss
TTITLE4=Chuck Wicks - Old School
TTITLE5=Chad Brownlee - Day After You
TTITLE6=Blake Wise - I've Got This Feeling
TTITLE7=Gary Allan - Kiss Me When I'm Down
TTITLE8=Wyatt - Airplanes
TTITLE9=Chad Klinger - Three Words Aren't Enough
TTITLE10=Crystal Shawanda - Fight For Me
TTITLE11=Zac Brown Band - Colder Weather
TTITLE12=Miranda Lambert - Heart Like Mine
TTITLE13=Rascal Flatts - I Won't Let Go
TTITLE14=Craig Morgan - Still A Little Chicken Left On The Bone
TTITLE15=Steel Magnolia - Last Night Again
TTITLE16=Brett Eldredge - Raymond
TTITLE17=Josh Turner - I Wouldn't Be A Man
TTITLE18=James Otto - Soldiers and Jesus
TTITLE19=Jaron and The Long Road To Love - That's Beautiful To Me
EXTD=
EXTT0=
EXTT1=
EXTT2=
EXTT3=
EXTT4=
EXTT5=
EXTT6=
EXTT7=
EXTT8=
EXTT9=
EXTT10=
EXTT11=
EXTT12=
EXTT13=
EXTT14=
EXTT15=
EXTT16=
EXTT17=
EXTT18=
EXTT19=
PLAYORDER=
